HIERARCHY
ROOT Hips
{
  OFFSET -6.708 20.531 -264.561
  CHANNELS 6 Xposition Yposition Zposition Zrotation Xrotation Yrotation
  JOINT LeftUpLeg
  {
    OFFSET 7.996 -7.530 2.847
    CHANNELS 6 Xposition Yposition Zposition Zrotation Xrotation Yrotation
    JOINT LeftLeg
    {
      OFFSET 0.000 -46.890 0.000
      CHANNELS 6 Xposition Yposition Zposition Zrotation Xrotation Yrotation
      JOINT LeftFoot
      {
        OFFSET 0.000 -41.508 -0.000
        CHANNELS 6 Xposition Yposition Zposition Zrotation Xrotation Yrotation
        End Site
        {
          OFFSET 0.000 -9.420 5.439
        }
      }
    }
  }
  JOINT RightUpLeg
  {
    OFFSET -7.950 -7.212 1.983
    CHANNELS 6 Xposition Yposition Zposition Zrotation Xrotation Yrotation
    JOINT RightLeg
    {
      OFFSET 0.000 -46.849 0.000
      CHANNELS 6 Xposition Yposition Zposition Zrotation Xrotation Yrotation
      JOINT RightFoot
      {
        OFFSET 0.000 -41.111 -0.000
        CHANNELS 6 Xposition Yposition Zposition Zrotation Xrotation Yrotation
        End Site
        {
          OFFSET 0.000 -9.873 5.700
        }
      }
    }
  }
  JOINT Spine
  {
    OFFSET 0.000 5.894 -5.894
    CHANNELS 6 Xposition Yposition Zposition Zrotation Xrotation Yrotation
    JOINT LeftShoulder
    {
      OFFSET -0.000 37.329 0.000
      CHANNELS 6 Xposition Yposition Zposition Zrotation Xrotation Yrotation
      JOINT LeftArm
      {
        OFFSET 22.355 0.000 -0.000
        CHANNELS 6 Xposition Yposition Zposition Zrotation Xrotation Yrotation
        JOINT LeftForeArm
        {
          OFFSET 24.850 0.000 0.000
          CHANNELS 6 Xposition Yposition Zposition Zrotation Xrotation Yrotation
          JOINT LeftHand
          {
            OFFSET 28.012 0.000 -0.000
            CHANNELS 6 Xposition Yposition Zposition Zrotation Xrotation Yrotation
            JOINT LeftHandThumb1
            {
            OFFSET 4.970 -0.620 3.390
            CHANNELS 6 Xposition Yposition Zposition Zrotation Xrotation Yrotation
              JOINT LeftHandThumb2
              {
              OFFSET 2.150 -0.000 0.000
              CHANNELS 6 Xposition Yposition Zposition Zrotation Xrotation Yrotation
                JOINT LeftHandThumb3
                {
                OFFSET 2.200 -0.000 0.000
                CHANNELS 6 Xposition Yposition Zposition Zrotation Xrotation Yrotation
                  JOINT LeftHandThumb4
                  {
                  OFFSET 1.700 -0.000 0.000
                  CHANNELS 6 Xposition Yposition Zposition Zrotation Xrotation Yrotation
                  }
                }
              }
            }
            JOINT LeftHandIndex1
            {
            OFFSET 8.730 0.680 2.070
            CHANNELS 6 Xposition Yposition Zposition Zrotation Xrotation Yrotation
              JOINT LeftHandIndex2
              {
              OFFSET 2.670 -0.000 0.000
              CHANNELS 6 Xposition Yposition Zposition Zrotation Xrotation Yrotation
                JOINT LeftHandIndex3
                {
                OFFSET 2.130 -0.000 0.000
                CHANNELS 6 Xposition Yposition Zposition Zrotation Xrotation Yrotation
                  JOINT LeftHandIndex4
                  {
                  OFFSET 1.800 -0.000 0.000
                  CHANNELS 6 Xposition Yposition Zposition Zrotation Xrotation Yrotation
                  }
                }
              }
            }
            JOINT LeftHandMiddle1
            {
            OFFSET 9.220 0.670 0.550
            CHANNELS 6 Xposition Yposition Zposition Zrotation Xrotation Yrotation
              JOINT LeftHandMiddle2
              {
              OFFSET 2.660 -0.000 0.000
              CHANNELS 6 Xposition Yposition Zposition Zrotation Xrotation Yrotation
                JOINT LeftHandMiddle3
                {
                OFFSET 2.280 -0.000 0.000
                CHANNELS 6 Xposition Yposition Zposition Zrotation Xrotation Yrotation
                  JOINT LeftHandMiddle4
                  {
                  OFFSET 1.500 -0.000 0.000
                  CHANNELS 6 Xposition Yposition Zposition Zrotation Xrotation Yrotation
                  }
                }
              }
            }
            JOINT LeftHandRing1
            {
            OFFSET 9.250 0.670 -1.130
            CHANNELS 6 Xposition Yposition Zposition Zrotation Xrotation Yrotation
              JOINT LeftHandRing2
              {
              OFFSET 2.470 -0.000 0.000
              CHANNELS 6 Xposition Yposition Zposition Zrotation Xrotation Yrotation
                JOINT LeftHandRing3
                {
                OFFSET 2.210 -0.000 0.000
                CHANNELS 6 Xposition Yposition Zposition Zrotation Xrotation Yrotation
                  JOINT LeftHandRing4
                  {
                  OFFSET 1.800 -0.000 0.000
                  CHANNELS 6 Xposition Yposition Zposition Zrotation Xrotation Yrotation
                  }
                }
              }
            }
            JOINT LeftHandPinky1
            {
            OFFSET 9.350 0.660 -2.720
            CHANNELS 6 Xposition Yposition Zposition Zrotation Xrotation Yrotation
              JOINT LeftHandPinky2
              {
              OFFSET 1.630 -0.000 0.000
              CHANNELS 6 Xposition Yposition Zposition Zrotation Xrotation Yrotation
                JOINT LeftHandPinky3
                {
                OFFSET 1.710 -0.000 0.000
                CHANNELS 6 Xposition Yposition Zposition Zrotation Xrotation Yrotation
                  JOINT LeftHandPinky4
                  {
                  OFFSET 1.800 -0.000 0.000
                  CHANNELS 6 Xposition Yposition Zposition Zrotation Xrotation Yrotation
                  }
                }
              }
            }
          }
        }
      }
    }
    JOINT RightShoulder
    {
      OFFSET -0.000 37.329 0.000
      CHANNELS 6 Xposition Yposition Zposition Zrotation Xrotation Yrotation
      JOINT RightArm
      {
        OFFSET -19.372 0.000 -0.000
        CHANNELS 6 Xposition Yposition Zposition Zrotation Xrotation Yrotation
        JOINT RightForeArm
        {
          OFFSET -27.709 0.000 0.000
          CHANNELS 6 Xposition Yposition Zposition Zrotation Xrotation Yrotation
          JOINT RightHand
          {
            OFFSET -25.003 0.000 -0.000
            CHANNELS 6 Xposition Yposition Zposition Zrotation Xrotation Yrotation
            JOINT RightHandThumb1
            {
            OFFSET -4.970 -0.620 3.390
            CHANNELS 6 Xposition Yposition Zposition Zrotation Xrotation Yrotation
              JOINT RightHandThumb2
              {
              OFFSET -2.150 0.000 0.000
              CHANNELS 6 Xposition Yposition Zposition Zrotation Xrotation Yrotation
                JOINT RightHandThumb3
                {
                OFFSET -2.200 0.000 0.000
                CHANNELS 6 Xposition Yposition Zposition Zrotation Xrotation Yrotation
                  JOINT RightHandThumb4
                  {
                  OFFSET -1.700 0.000 0.000
                  CHANNELS 6 Xposition Yposition Zposition Zrotation Xrotation Yrotation
                  }
                }
              }
            }
            JOINT RightHandIndex1
            {
            OFFSET -8.730 0.680 2.070
            CHANNELS 6 Xposition Yposition Zposition Zrotation Xrotation Yrotation
              JOINT RightHandIndex2
              {
              OFFSET -2.670 0.000 0.000
              CHANNELS 6 Xposition Yposition Zposition Zrotation Xrotation Yrotation
                JOINT RightHandIndex3
                {
                OFFSET -2.130 0.000 0.000
                CHANNELS 6 Xposition Yposition Zposition Zrotation Xrotation Yrotation
                  JOINT RightHandIndex4
                  {
                  OFFSET -1.800 0.000 0.000
                  CHANNELS 6 Xposition Yposition Zposition Zrotation Xrotation Yrotation
                  }
                }
              }
            }
            JOINT RightHandMiddle1
            {
            OFFSET -9.220 0.670 0.550
            CHANNELS 6 Xposition Yposition Zposition Zrotation Xrotation Yrotation
              JOINT RightHandMiddle2
              {
              OFFSET -2.660 0.000 0.000
              CHANNELS 6 Xposition Yposition Zposition Zrotation Xrotation Yrotation
                JOINT RightHandMiddle3
                {
                OFFSET -2.280 0.000 0.000
                CHANNELS 6 Xposition Yposition Zposition Zrotation Xrotation Yrotation
                  JOINT RightHandMiddle4
                  {
                  OFFSET -1.500 0.000 0.000
                  CHANNELS 6 Xposition Yposition Zposition Zrotation Xrotation Yrotation
                  }
                }
              }
            }
            JOINT RightHandRing1
            {
            OFFSET -9.250 0.670 -1.130
            CHANNELS 6 Xposition Yposition Zposition Zrotation Xrotation Yrotation
              JOINT RightHandRing2
              {
              OFFSET -2.470 0.000 0.000
              CHANNELS 6 Xposition Yposition Zposition Zrotation Xrotation Yrotation
                JOINT RightHandRing3
                {
                OFFSET -2.210 0.000 0.000
                CHANNELS 6 Xposition Yposition Zposition Zrotation Xrotation Yrotation
                  JOINT RightHandRing4
                  {
                  OFFSET -1.800 0.000 0.000
                  CHANNELS 6 Xposition Yposition Zposition Zrotation Xrotation Yrotation
                  }
                }
              }
            }
            JOINT RightHandPinky1
            {
            OFFSET -9.350 0.660 -2.720
            CHANNELS 6 Xposition Yposition Zposition Zrotation Xrotation Yrotation
              JOINT RightHandPinky2
              {
              OFFSET -1.630 0.000 0.000
              CHANNELS 6 Xposition Yposition Zposition Zrotation Xrotation Yrotation
                JOINT RightHandPinky3
                {
                OFFSET -1.710 0.000 0.000
                CHANNELS 6 Xposition Yposition Zposition Zrotation Xrotation Yrotation
                  JOINT RightHandPinky4
                  {
                  OFFSET -1.800 0.000 0.000
                  CHANNELS 6 Xposition Yposition Zposition Zrotation Xrotation Yrotation
                  }
                }
              }
            }
          }
        }
      }
    }
    JOINT Neck
    {
      OFFSET -0.000 37.329 0.000
      CHANNELS 6 Xposition Yposition Zposition Zrotation Xrotation Yrotation
      JOINT Head
      {
        OFFSET -0.000 17.827 -0.000
        CHANNELS 6 Xposition Yposition Zposition Zrotation Xrotation Yrotation
        End Site
        {
          OFFSET -0.000 0.071 -0.000
        }
      }
    }
  }
}
MOTION
Frames:	5
Frame Time:	0.0333333
-34.7737 14.7541 -224.544 -2.18078 3.38572 8.15172 8.80124 -8.58126 1.63054 23.6202 -26.3511 -1.27887 -9.31323e-07 -43.2422 -2.38419e-05 11.0673 21.0504 1.82965e-06 9.68575e-06 -44.7614 -2.38419e-05 -1.46554 -19.6678 -0.189252 -8.08686 -7.85237 1.6252 -9.75647 -19.8166 -7.51478 -5.96046e-06 -41.8632 2.38419e-05 13.7589 36.0037 4.74917e-06 1.19209e-05 -42.2809 -1.19209e-05 -10.5377 -20.1228 -9.39596 -2.42144e-06 5.92517 -5.92525 3.22214 -1.25636 -5.64009 2.98023e-06 37.3278 7.15256e-05 -36.777 1.1686e-05 0.125061 24.4574 -2.98023e-06 -2.38419e-05 -6.74175 -52.1136 -1.25719 24.2204 -1.19209e-05 2.38419e-05 3.05629e-05 -2.60117e-06 -107.498 30.8007 0 8.9407e-06 10.212 0.041863 -5.57774 0.0062 0.0497 0.0339 0 0 0 0 0.0215 0 0 0 0 0 0.022 0 0 0 0 0 0.017 0 0 0 0 -0.0068 0.0873 0.0207 0 0 0 0 0.0267 0 0 0 0 0 0.0213 0 0 0 0 0 0.018 0 0 0 0 -0.0067 0.0922 0.0055 0 0 0 0 0.0266 0 0 0 0 0 0.0228 0 0 0 0 0 0.015 0 0 0 0 -0.0067 0.0925 -0.0113 0 0 0 0 0.0247 0 0 0 0 0 0.0221 0 0 0 0 0 0.018 0 0 0 0 -0.0066 0.0935 -0.0272 0 0 0 0 0.0163 0 0 0 0 0 0.0171 0 0 0 0 0 0.018 0 0 0 0 2.98023e-06 37.3278 7.15256e-05 27.397 -3.20165e-06 -0.160138 -19.1015 5.96046e-06 2.38419e-05 29.8413 18.3491 39.289 -31.407 8.9407e-06 -2.38419e-05 -0.000846985 5.03503e-06 90.9331 -24.476 -1.49012e-06 0 62.3296 -1.86111 47.3744 -0.0062 0.0497 0.0339 0 0 0 0 0.0215 0 0 0 0 0 0.022 0 0 0 0 0 0.017 0 0 0 0 0.0068 0.0873 0.0207 0 0 0 0 0.0267 0 0 0 0 0 0.0213 0 0 0 0 0 0.018 0 0 0 0 0.0067 0.0922 0.0055 0 0 0 0 0.0266 0 0 0 0 0 0.0228 0 0 0 0 0 0.015 0 0 0 0 0.0067 0.0925 -0.0113 0 0 0 0 0.0247 0 0 0 0 0 0.0221 0 0 0 0 0 0.018 0 0 0 0 0.0066 0.0935 -0.0272 0 0 0 0 0.0163 0 0 0 0 0 0.0171 0 0 0 0 0 0.018 0 0 0 0 2.98023e-06 37.3278 7.15256e-05 -17.4981 10.0556 3.15072 0 16.9622 0 1.14192e-05 -1.02453e-05 4.26887e-07 
-34.7737 14.7541 -224.544 -2.18078 3.38572 8.15172 8.80124 -8.58126 1.63054 23.6202 -26.3511 -1.27887 -9.31323e-07 -43.2422 -2.38419e-05 11.0673 21.0504 1.82965e-06 9.68575e-06 -44.7614 -2.38419e-05 -1.46554 -19.6678 -0.189252 -8.08686 -7.85237 1.6252 -9.75647 -19.8166 -7.51478 -5.96046e-06 -41.8632 2.38419e-05 13.7589 36.0037 4.74917e-06 1.19209e-05 -42.2809 -1.19209e-05 -10.5377 -20.1228 -9.39596 -2.42144e-06 5.92517 -5.92525 3.22214 -1.25636 -5.64009 2.98023e-06 37.3278 7.15256e-05 -36.777 1.1686e-05 0.125061 24.4574 -2.98023e-06 -2.38419e-05 -6.74175 -52.1136 -1.25719 24.2204 -1.19209e-05 2.38419e-05 3.05629e-05 -2.60117e-06 -107.498 30.8007 0 8.9407e-06 10.212 0.041863 -5.57774 0.0062 0.0497 0.0339 0 0 0 0 0.0215 0 0 0 0 0 0.022 0 0 0 0 0 0.017 0 0 0 0 -0.0068 0.0873 0.0207 0 0 0 0 0.0267 0 0 0 0 0 0.0213 0 0 0 0 0 0.018 0 0 0 0 -0.0067 0.0922 0.0055 0 0 0 0 0.0266 0 0 0 0 0 0.0228 0 0 0 0 0 0.015 0 0 0 0 -0.0067 0.0925 -0.0113 0 0 0 0 0.0247 0 0 0 0 0 0.0221 0 0 0 0 0 0.018 0 0 0 0 -0.0066 0.0935 -0.0272 0 0 0 0 0.0163 0 0 0 0 0 0.0171 0 0 0 0 0 0.018 0 0 0 0 2.98023e-06 37.3278 7.15256e-05 27.397 -3.20165e-06 -0.160138 -19.1015 5.96046e-06 2.38419e-05 29.8413 18.3491 39.289 -31.407 8.9407e-06 -2.38419e-05 -0.000846985 5.03503e-06 90.9331 -24.476 -1.49012e-06 0 62.3296 -1.86111 47.3744 -0.0062 0.0497 0.0339 0 0 0 0 0.0215 0 0 0 0 0 0.022 0 0 0 0 0 0.017 0 0 0 0 0.0068 0.0873 0.0207 0 0 0 0 0.0267 0 0 0 0 0 0.0213 0 0 0 0 0 0.018 0 0 0 0 0.0067 0.0922 0.0055 0 0 0 0 0.0266 0 0 0 0 0 0.0228 0 0 0 0 0 0.015 0 0 0 0 0.0067 0.0925 -0.0113 0 0 0 0 0.0247 0 0 0 0 0 0.0221 0 0 0 0 0 0.018 0 0 0 0 0.0066 0.0935 -0.0272 0 0 0 0 0.0163 0 0 0 0 0 0.0171 0 0 0 0 0 0.018 0 0 0 0 2.98023e-06 37.3278 7.15256e-05 -17.4981 10.0556 3.15072 0 16.9622 0 1.14192e-05 -1.02453e-05 4.26887e-07 
-33.441 14.4769 -223.35 -2.15662 3.44944 7.53266 8.75311 -8.53326 1.6187 24.0649 -25.8636 -1.28041 0 -42.9871 2.38419e-05 10.9911 20.9281 0 -4.47035e-06 -45.2722 -2.38419e-05 -3.87671 -18.9763 -2.16957 -8.00666 -7.86073 1.63944 -10.6939 -19.2091 -7.22503 0 -41.77 2.38419e-05 14.1176 36.1381 3.70012e-06 5.96046e-06 -42.2379 0 -10.3944 -20.2218 -9.28742 1.49012e-06 5.92915 -5.92914 3.32861 -1.32901 -5.62672 5.96046e-06 37.3278 -7.15256e-05 -37.0699 1.19528e-05 0.0400396 24.3381 4.47035e-06 -2.38419e-05 -5.49167 -52.6665 -1.29179 24.3452 1.19209e-05 0 -3.06111e-05 2.44319e-06 -106.404 29.515 -2.38419e-05 0 9.73259 0.0350612 -5.33079 0.0062 0.0497 0.0339 0 0 0 0 0.0215 0 0 0 0 0 0.022 0 0 0 0 0 0.017 0 0 0 0 -0.0068 0.0873 0.0207 0 0 0 0 0.0267 0 0 0 0 0 0.0213 0 0 0 0 0 0.018 0 0 0 0 -0.0067 0.0922 0.0055 0 0 0 0 0.0266 0 0 0 0 0 0.0228 0 0 0 0 0 0.015 0 0 0 0 -0.0067 0.0925 -0.0113 0 0 0 0 0.0247 0 0 0 0 0 0.0221 0 0 0 0 0 0.018 0 0 0 0 -0.0066 0.0935 -0.0272 0 0 0 0 0.0163 0 0 0 0 0 0.0171 0 0 0 0 0 0.018 0 0 0 0 5.96046e-06 37.3278 -7.15256e-05 27.2242 -2.34788e-06 -0.0508953 -19.1501 5.96046e-06 2.38419e-05 31.1348 18.1082 37.9884 -31.0485 -2.98023e-06 2.38419e-05 -0.00188876 -3.39445e-06 90.4648 -24.4488 1.19209e-05 -1.19209e-05 54.585 -2.44683 42.7256 -0.0062 0.0497 0.0339 0 0 0 0 0.0215 0 0 0 0 0 0.022 0 0 0 0 0 0.017 0 0 0 0 0.0068 0.0873 0.0207 0 0 0 0 0.0267 0 0 0 0 0 0.0213 0 0 0 0 0 0.018 0 0 0 0 0.0067 0.0922 0.0055 0 0 0 0 0.0266 0 0 0 0 0 0.0228 0 0 0 0 0 0.015 0 0 0 0 0.0067 0.0925 -0.0113 0 0 0 0 0.0247 0 0 0 0 0 0.0221 0 0 0 0 0 0.018 0 0 0 0 0.0066 0.0935 -0.0272 0 0 0 0 0.0163 0 0 0 0 0 0.0171 0 0 0 0 0 0.018 0 0 0 0 5.96046e-06 37.3278 -7.15256e-05 -17.0117 10.2033 3.10225 -1.19209e-05 16.9037 -2.38419e-05 6.08314e-06 -1.10991e-05 1.28066e-06 
-31.4636 14.1968 -221.848 -2.0312 3.55906 6.6123 8.78494 -8.4938 1.69456 24.1573 -25.0759 -2.21624 3.72529e-06 -42.6539 0 10.2575 21.3097 1.37465e-06 6.70552e-06 -45.6777 4.76837e-05 -4.94728 -16.465 -3.1038 -8.0015 -7.86763 1.59197 -11.7555 -18.6395 -6.89059 0 -41.7008 -2.38419e-05 13.6338 36.5049 3.71757e-06 -2.98023e-06 -42.2036 -1.19209e-05 -9.92231 -20.2716 -8.88384 6.70552e-06 5.93646 -5.93646 3.41601 -1.41303 -5.53416 -2.98023e-06 37.3278 0 -37.1039 1.16327e-05 -0.274565 24.3748 -4.47035e-06 -7.15256e-05 -3.99581 -53.5503 0.543063 24.1411 -2.38419e-05 1.19209e-05 -3.37063e-07 -2.39135e-06 -106.046 28.4542 -1.19209e-05 -8.9407e-06 9.20958 0.050766 -4.24465 0.0062 0.0497 0.0339 0 0 0 0 0.0215 0 0 0 0 0 0.022 0 0 0 0 0 0.017 0 0 0 0 -0.0068 0.0873 0.0207 0 0 0 0 0.0267 0 0 0 0 0 0.0213 0 0 0 0 0 0.018 0 0 0 0 -0.0067 0.0922 0.0055 0 0 0 0 0.0266 0 0 0 0 0 0.0228 0 0 0 0 0 0.015 0 0 0 0 -0.0067 0.0925 -0.0113 0 0 0 0 0.0247 0 0 0 0 0 0.0221 0 0 0 0 0 0.018 0 0 0 0 -0.0066 0.0935 -0.0272 0 0 0 0 0.0163 0 0 0 0 0 0.0171 0 0 0 0 0 0.018 0 0 0 0 -2.98023e-06 37.3278 0 27.1892 -2.77476e-06 0.348571 -19.1993 5.96046e-06 0 35.3686 16.5838 35.4536 -29.6962 5.21541e-06 0 0.00021414 1.70755e-06 87.7147 -24.022 5.96046e-06 0 46.8752 -2.59322 36.6023 -0.0062 0.0497 0.0339 0 0 0 0 0.0215 0 0 0 0 0 0.022 0 0 0 0 0 0.017 0 0 0 0 0.0068 0.0873 0.0207 0 0 0 0 0.0267 0 0 0 0 0 0.0213 0 0 0 0 0 0.018 0 0 0 0 0.0067 0.0922 0.0055 0 0 0 0 0.0266 0 0 0 0 0 0.0228 0 0 0 0 0 0.015 0 0 0 0 0.0067 0.0925 -0.0113 0 0 0 0 0.0247 0 0 0 0 0 0.0221 0 0 0 0 0 0.018 0 0 0 0 0.0066 0.0935 -0.0272 0 0 0 0 0.0163 0 0 0 0 0 0.0171 0 0 0 0 0 0.018 0 0 0 0 -2.98023e-06 37.3278 0 -16.6617 10.3036 3.06419 -1.19209e-05 16.8535 4.76837e-05 6.72347e-06 -8.53774e-06 8.53773e-07 
-29.1999 13.9847 -220.404 -1.83189 3.594 6.39678 8.63547 -8.43572 1.8235 23.9274 -24.4576 -3.60687 0 -42.3924 -2.38419e-05 8.77208 22.0028 6.90632e-07 -7.45058e-07 -45.8215 4.76837e-05 -4.88289 -14.3485 -3.17572 -7.84371 -7.80544 1.45855 -13.4299 -17.6596 -6.91919 -5.96046e-06 -41.6638 0 13.3154 36.3918 4.24247e-06 -2.98023e-06 -42.3119 -1.19209e-05 -9.22258 -20.2593 -8.27653 5.21541e-06 5.96229 -5.9623 3.43255 -1.59154 -5.4518 -8.9407e-06 37.3278 -7.15256e-05 -36.7843 1.15259e-05 -1.03415 24.4489 1.19209e-05 0 -2.95605 -53.4599 2.40162 23.9858 -4.76837e-05 3.57628e-05 -3.02102e-07 -2.26626e-06 -105.186 29.0718 0 -5.96046e-06 9.22004 0.0351119 -4.71952 0.0062 0.0497 0.0339 0 0 0 0 0.0215 0 0 0 0 0 0.022 0 0 0 0 0 0.017 0 0 0 0 -0.0068 0.0873 0.0207 0 0 0 0 0.0267 0 0 0 0 0 0.0213 0 0 0 0 0 0.018 0 0 0 0 -0.0067 0.0922 0.0055 0 0 0 0 0.0266 0 0 0 0 0 0.0228 0 0 0 0 0 0.015 0 0 0 0 -0.0067 0.0925 -0.0113 0 0 0 0 0.0247 0 0 0 0 0 0.0221 0 0 0 0 0 0.018 0 0 0 0 -0.0066 0.0935 -0.0272 0 0 0 0 0.0163 0 0 0 0 0 0.0171 0 0 0 0 0 0.018 0 0 0 0 -8.9407e-06 37.3278 -7.15256e-05 28.438 -2.34788e-06 1.36413 -18.5354 2.38419e-05 -4.76837e-05 34.5847 14.58 32.7176 -29.2001 1.00583e-05 2.38419e-05 2.16448e-05 8.53775e-06 87.7215 -24.1552 -7.07805e-06 1.19209e-05 45.8417 -1.95736 37.0926 -0.0062 0.0497 0.0339 0 0 0 0 0.0215 0 0 0 0 0 0.022 0 0 0 0 0 0.017 0 0 0 0 0.0068 0.0873 0.0207 0 0 0 0 0.0267 0 0 0 0 0 0.0213 0 0 0 0 0 0.018 0 0 0 0 0.0067 0.0922 0.0055 0 0 0 0 0.0266 0 0 0 0 0 0.0228 0 0 0 0 0 0.015 0 0 0 0 0.0067 0.0925 -0.0113 0 0 0 0 0.0247 0 0 0 0 0 0.0221 0 0 0 0 0 0.018 0 0 0 0 0.0066 0.0935 -0.0272 0 0 0 0 0.0163 0 0 0 0 0 0.0171 0 0 0 0 0 0.018 0 0 0 0 -8.9407e-06 37.3278 -7.15256e-05 -15.9308 10.6071 3.00764 -1.49012e-05 16.8566 2.38419e-05 4.48231e-06 -1.10991e-05 -4.26887e-07 
